# xmcd CD database file
#
# Track frame offsets:
#	150
#	18662
#	42050
#
# Disc length: 871 seconds
#
# Revision: 1
# Processed by: cddbd v1.5.2PL0 Copyright (c) Steve Scherf et al.
# Submitted via: CDex 2.09
#
DISCID=1b036503
DTITLE=Redford (Ressu Redford) - I Like Chopin
DYEAR=2000
DGENRE=Eurodance
TTITLE0=I Like Chopin (Radio Mix)
TTITLE1=I Like Chopin (Trance Floor Extension)
TTITLE2=I Like Chopin (Pop Floor Extension)
EXTD=TR. YEAR: 2000
EXTT0=
EXTT1=
EXTT2=
PLAYORDER=
